<svg width="16" height="16" fill="none" xmlns="http://www.w3.org/2000/svg"><path d="M14.667 10.793c0 2.427-1.447 3.874-3.874 3.874H10A.669.669 0 0 1 9.333 14v-3.847c0-.18.147-.333.327-.333l1.173-.02a.213.213 0 0 0 .194-.167l.233-1.273a.204.204 0 0 0-.115-.215.202.202 0 0 0-.085-.018l-1.42.02a.339.339 0 0 1-.34-.327l-.027-1.633a.2.2 0 0 1 .2-.2l1.6-.027c.114 0 .2-.087.2-.2l-.026-1.6c0-.113-.087-.2-.2-.2l-1.8.027A1.997 1.997 0 0 0 7.28 6.02l.033 1.833a.33.33 0 0 1-.326.34l-.8.014c-.114 0-.2.086-.2.2l.02 1.266c0 .114.086.2.2.2l.8-.013c.186 0 .333.147.34.327l.06 3.8a.667.667 0 0 1-.667.68H5.207c-2.427 0-3.874-1.447-3.874-3.88v-5.58c0-2.427 1.447-3.874 3.874-3.874h5.586c2.427 0 3.874 1.447 3.874 3.874v5.586Z" fill="#D9D9D9"/></svg>