<svg width="16" height="16" fill="none" xmlns="http://www.w3.org/2000/svg"><path d="M14.973 4a5.71 5.71 0 0 1-1.64.46 2.866 2.866 0 0 0 1.254-1.587 5.761 5.761 0 0 1-1.814.7 2.816 2.816 0 0 0-2.106-.906 2.857 2.857 0 0 0-2.847 2.86c0 .226.027.446.073.653A8.13 8.13 0 0 1 2 3.193a2.83 2.83 0 0 0-.387 1.434c0 .993.5 1.873 1.274 2.373-.474 0-.914-.133-1.3-.333v.02c0 1.386.986 2.546 2.293 2.806-.42.115-.86.131-1.287.047a2.853 2.853 0 0 0 2.667 1.987 5.681 5.681 0 0 1-3.553 1.226c-.227 0-.454-.013-.68-.04A8.096 8.096 0 0 0 5.413 14c5.254 0 8.14-4.36 8.14-8.14 0-.127 0-.247-.006-.373.56-.4 1.04-.907 1.426-1.487Z" fill="#D9D9D9"/></svg>