<svg width="32" height="33" fill="none" xmlns="http://www.w3.org/2000/svg"><path d="M31.275 5.044c-3.873 0-9.344.324-12.14 3.118-1.21 1.21-1.815 3.184-1.658 5.417a.725.725 0 0 0 1.279.42c1.555-1.83 3.488-3.295 5.749-4.358a.823.823 0 0 1 .625-.026.687.687 0 0 1 .398.348c.154.325.104.754-.407.995-.03.014-.055.033-.084.046-.01.005-.022.003-.031.008-5.571 2.618-8.31 7.187-9.555 11.885-.906-5.882-2.822-9.345-4.63-11.471C9.51 9.729 8.222 8.829 7.478 8.32c-.138-.094-.555-.379-.728-.552a.727.727 0 0 1 0-1.027c.284-.282.746-.282 1.061.032.077.068.2.155.358.26l.129.087c1.052.72 3.011 2.06 4.749 4.94a.726.726 0 0 0 1.335-.236c.38-1.936.21-4.81-1.518-6.538C10.069 2.493 4.598 2.17.727 2.17A.727.727 0 0 0 0 2.896c0 3.872.324 9.343 3.118 12.14 1.166 1.165 2.963 1.688 4.75 1.688 1.457 0 2.885-.365 3.98-.997 1.492 3.092 2.684 7.712 2.684 14.779a.727.727 0 0 0 1.453 0c0-3.943.675-8.674 3.188-12.569 1.007.984 2.74 1.608 4.662 1.666a9.4 9.4 0 0 0 .284.004c1.952 0 3.677-.612 4.762-1.699C31.677 15.112 32 9.641 32 5.768a.722.722 0 0 0-.725-.724Z" fill="#00B307"/></svg>