<svg width="1440" height="137" fill="none" xmlns="http://www.w3.org/2000/svg"><path d="M14.005 128.133 0 124.586V0h1440v135.67l-12-2.217-10.51 2.217h-42.01l-15.51-2.217h-20l-8.01-3.103-14 3.103h-11.01l-10-3.103h-14l-11.01 3.103-9-3.103-16.01-.887-19 .887-15.51-.887-15.5-4.877-29.01 5.764-12.51-.887h-27.01l-7.5-1.33-10.5 2.217h-14.01l-8.5 3.103h-10.01l-12-3.103-18.51 6.65-18-3.547-19.51 3.547-15.005-3.547h-33.011l-7.503-3.103h-14.505l-20.507 3.103h-7.502l-5.502-3.103H891.31l-12.505-.887-1.5.887-5.502-2.661-24.009 2.661h-18.006l-12.504 3.103h-36.513c-7.202-2.483-19.673-1.034-25.009 0-6.002-1.034-18.506-3.103-20.507-3.103h-8.503c-.8 0-6.002 2.069-8.503 3.103l-27.009-5.32-6.502 2.217-21.508-2.217v3.547l-30.51-3.547h-24.009l-13.004-4.877h-41.515l-13.504 4.877h-34.012c-3.501-1.626-11.204-4.877-14.005-4.877s-11.17 3.251-15.005 4.877h-19.007c-3.334-3.104-12.204-8.424-21.007-4.877-8.803 3.547-21.341 4.729-26.509 4.877l-6.502 4.433c-2.835-1.478-9.404-4.433-13.005-4.433-3.601 0-8.836 2.955-11.004 4.433-1.334 1.33-6.802 3.193-18.006 0-11.204-3.192-23.008-1.33-27.51 0H307.107l-25.509-4.433h-38.514l-14.004 4.433h-66.023l-25.509-4.433-6.002 8.424h-13.005l-23.508-3.991H61.521c-3.2 0-15.672-2.955-21.507-4.433l-17.506-3.547-8.503-3.104v6.651Z" fill="#fff"/></svg>