<svg width="72" height="25" viewBox="0 0 72 25" fill="none" xmlns="http://www.w3.org/2000/svg">
<path d="M22 23L20 21M11.5 22C12.7476 22 13.9829 21.7543 15.1355 21.2769C16.2881 20.7994 17.3354 20.0997 18.2175 19.2175C19.0997 18.3354 19.7994 17.2881 20.2769 16.1355C20.7543 14.9829 21 13.7476 21 12.5C21 11.2524 20.7543 10.0171 20.2769 8.86451C19.7994 7.71191 19.0997 6.66464 18.2175 5.78249C17.3354 4.90033 16.2881 4.20056 15.1355 3.72314C13.9829 3.24572 12.7476 3 11.5 3C8.98044 3 6.56408 4.00089 4.78249 5.78249C3.00089 7.56408 2 9.98044 2 12.5C2 15.0196 3.00089 17.4359 4.78249 19.2175C6.56408 20.9991 8.98044 22 11.5 22Z" stroke="#D9D9D9" stroke-width="1.5" stroke-linecap="round" stroke-linejoin="round"/>
</svg>
