<svg width="16" height="16" viewBox="0 0 16 16" fill="none" xmlns="http://www.w3.org/2000/svg">
<path d="M14.6667 10.7933C14.6667 13.22 13.22 14.6667 10.7933 14.6667H9.99999C9.63333 14.6667 9.33333 14.3667 9.33333 14V10.1533C9.33333 9.97334 9.47999 9.82001 9.65999 9.82001L10.8333 9.80001C10.9267 9.79334 11.0067 9.72668 11.0267 9.63334L11.26 8.36001C11.2645 8.33115 11.2627 8.30165 11.2548 8.27354C11.2468 8.24544 11.2328 8.2194 11.2138 8.19722C11.1948 8.17503 11.1712 8.15724 11.1446 8.14506C11.1181 8.13289 11.0892 8.12661 11.06 8.12668L9.63999 8.14668C9.45333 8.14668 9.30666 8.00001 9.29999 7.82001L9.27333 6.18668C9.27333 6.08001 9.35999 5.98668 9.47333 5.98668L11.0733 5.96001C11.1867 5.96001 11.2733 5.87334 11.2733 5.76001L11.2467 4.16001C11.2467 4.04668 11.16 3.96001 11.0467 3.96001L9.24666 3.98668C8.9839 3.99067 8.72451 4.04647 8.48336 4.15089C8.24221 4.25531 8.02403 4.40629 7.84133 4.59518C7.65863 4.78407 7.51501 5.00716 7.41868 5.25166C7.32236 5.49616 7.27523 5.75726 7.27999 6.02001L7.31333 7.85334C7.31999 8.04001 7.17333 8.18668 6.98666 8.19334L6.18666 8.20668C6.07333 8.20668 5.98666 8.29334 5.98666 8.40668L6.00666 9.67334C6.00666 9.78668 6.09333 9.87334 6.20666 9.87334L7.00666 9.86001C7.19333 9.86001 7.33999 10.0067 7.34666 10.1867L7.40666 13.9867C7.41333 14.36 7.11333 14.6667 6.73999 14.6667H5.20666C2.77999 14.6667 1.33333 13.22 1.33333 10.7867V5.20668C1.33333 2.78001 2.77999 1.33334 5.20666 1.33334H10.7933C13.22 1.33334 14.6667 2.78001 14.6667 5.20668V10.7933Z" fill="#D9D9D9"/>
</svg>
