<svg width="16" height="16" viewBox="0 0 16 16" fill="none" xmlns="http://www.w3.org/2000/svg">
<path d="M14.9733 3.99999C14.46 4.23332 13.9067 4.38666 13.3333 4.45999C13.92 4.10666 14.3733 3.54666 14.5867 2.87332C14.0333 3.20666 13.42 3.43999 12.7733 3.57332C12.2467 2.99999 11.5067 2.66666 10.6667 2.66666C9.10001 2.66666 7.82001 3.94666 7.82001 5.52666C7.82001 5.75332 7.84667 5.97332 7.89334 6.17999C5.52001 6.05999 3.40667 4.91999 2.00001 3.19332C1.75334 3.61332 1.61334 4.10666 1.61334 4.62666C1.61334 5.61999 2.11334 6.49999 2.88667 6.99999C2.41334 6.99999 1.97334 6.86666 1.58667 6.66666V6.68666C1.58667 8.07332 2.57334 9.23332 3.88001 9.49332C3.46049 9.60813 3.02007 9.6241 2.59334 9.53999C2.77441 10.1083 3.12903 10.6056 3.60735 10.9619C4.08567 11.3183 4.66364 11.5158 5.26001 11.5267C4.24909 12.3269 2.996 12.7595 1.70667 12.7533C1.48001 12.7533 1.25334 12.74 1.02667 12.7133C2.29334 13.5267 3.80001 14 5.41334 14C10.6667 14 13.5533 9.63999 13.5533 5.85999C13.5533 5.73332 13.5533 5.61332 13.5467 5.48666C14.1067 5.08666 14.5867 4.57999 14.9733 3.99999Z" fill="#D9D9D9"/>
</svg>
