<svg width="16" height="16" viewBox="0 0 16 16" fill="none" xmlns="http://www.w3.org/2000/svg">
<path d="M2.41634 12.9732C2.30607 12.9724 2.20162 12.9271 2.12499 12.8487C2.02099 12.7422 1.97804 12.586 2.01768 12.4416L2.7313 9.82555C2.27443 8.95408 2.03888 7.9729 2.04603 6.98233C2.06984 3.68233 4.74674 1.0192 8.01627 1.04279C11.2858 1.06638 13.924 3.76786 13.9002 7.06787C13.8764 10.3679 11.1995 13.031 7.92994 13.0074C6.93198 13.0002 5.95792 12.7428 5.09023 12.2579L2.52674 12.9573C2.48806 12.9682 2.45494 12.9735 2.41634 12.9732ZM5.15158 11.3957C5.22325 11.3962 5.29477 11.4191 5.3607 11.4529C6.13478 11.9204 7.02618 12.1717 7.93593 12.1783C10.7479 12.1985 13.0527 9.90559 13.0731 7.06747C13.0936 4.22936 10.8221 1.90339 8.01021 1.8831C5.19831 1.86281 2.8935 4.15576 2.87303 6.99387C2.86648 7.90095 3.09717 8.78749 3.53815 9.56981C3.59261 9.66481 3.60831 9.7818 3.57998 9.88733L3.01361 11.9646L5.0467 11.4117C5.07986 11.4008 5.11849 11.3955 5.15158 11.3957Z" fill="black"/>
<path d="M9.46074 10.2468C9.1189 10.2443 8.76659 10.1639 8.39835 9.99981C8.05208 9.84705 7.70617 9.6442 7.37164 9.39135C7.0426 9.14411 6.71934 8.86351 6.42378 8.56086C6.12825 8.25264 5.85487 7.92788 5.61468 7.59223C5.3691 7.23985 5.1731 6.89339 5.0322 6.55289C4.88047 6.18449 4.8059 5.82221 4.80838 5.47719C4.81015 5.23233 4.85594 4.99892 4.94021 4.78248C5.03007 4.55495 5.17491 4.35008 5.36366 4.17335C5.71906 3.82531 6.22725 3.70099 6.62834 3.89866C6.76574 3.96087 6.8808 4.06188 6.96808 4.19607L7.60105 5.10776C7.66657 5.19728 7.71557 5.29224 7.75348 5.38713C7.79678 5.49874 7.82355 5.61025 7.82279 5.71599C7.82174 5.86068 7.78205 6.00508 7.70393 6.13252C7.65371 6.21563 7.58131 6.31529 7.4869 6.40921L7.41466 6.48661C7.44742 6.53136 7.48561 6.58729 7.54578 6.65451C7.6606 6.7889 7.78637 6.93451 7.92321 7.07463C8.06008 7.20918 8.19696 7.34373 8.33395 7.46159C8.39971 7.51772 8.45458 7.56264 8.49849 7.59078L8.57619 7.51343C8.67616 7.41397 8.77602 7.33678 8.87562 7.28741C9.05842 7.17186 9.33975 7.14607 9.5871 7.25359C9.67508 7.28762 9.76293 7.33834 9.85618 7.40579L10.7723 8.0691C10.8984 8.15906 10.9967 8.2822 11.0619 8.4218C11.116 8.56132 11.1373 8.68391 11.1363 8.81191C11.1351 8.97885 11.0953 9.13996 11.0225 9.29526C10.9498 9.43943 10.8662 9.56683 10.7661 9.68298C10.5882 9.87648 10.3833 10.0197 10.162 10.1127C9.9408 10.2057 9.70334 10.2485 9.46074 10.2468ZM6.22041 4.64702C6.18732 4.64678 6.07708 4.64598 5.93824 4.78411C5.83276 4.88353 5.7603 4.98875 5.70983 5.10526C5.65937 5.22177 5.63635 5.35517 5.63538 5.48872C5.6337 5.72245 5.68702 5.97327 5.79536 6.24118C5.90914 6.52027 6.07795 6.81644 6.28534 7.1129C6.49824 7.40939 6.73871 7.70608 7.00693 7.98072C7.27517 8.24978 7.56002 8.50227 7.85614 8.72702C8.14132 8.94056 8.43239 9.10962 8.72369 9.23972C9.1414 9.42638 9.52697 9.47369 9.84221 9.3424C9.9528 9.29867 10.0526 9.22148 10.1526 9.12203C10.2026 9.06674 10.2417 9.01137 10.2753 8.93926C10.2921 8.90042 10.3034 8.85598 10.3037 8.81703C10.3037 8.8059 10.3039 8.7892 10.2876 8.7557L9.37144 8.10352C9.33305 8.07541 9.29461 8.05288 9.26161 8.04151C9.23948 8.05248 9.20633 8.06893 9.14524 8.12971L8.9342 8.33967C8.77314 8.4999 8.51919 8.54259 8.31571 8.46877L8.21679 8.42353C8.09046 8.35584 7.94777 8.25464 7.78888 8.11436C7.63547 7.97969 7.48766 7.83949 7.32889 7.68252C7.17567 7.52002 7.03892 7.36877 6.90772 7.212C6.76558 7.03845 6.66734 6.89861 6.60202 6.78127L6.54243 6.63614C6.52629 6.58037 6.52119 6.51912 6.5216 6.46347C6.52272 6.30765 6.57888 6.16892 6.68444 6.05838L6.89554 5.84286C6.95663 5.78208 6.97893 5.74885 6.99012 5.72667C6.97386 5.6876 6.95204 5.65405 6.92476 5.61489L6.28625 4.69203L6.22041 4.64702Z" fill="black"/>
</svg>
