<svg width="32" height="33" viewBox="0 0 32 33" fill="none" xmlns="http://www.w3.org/2000/svg">
<path d="M31.2749 5.04352C27.4022 5.04352 21.9311 5.36755 19.1352 8.16198C17.9247 9.37248 17.3202 11.3458 17.4771 13.5794C17.4975 13.8744 17.6937 14.1257 17.9756 14.2188C18.256 14.3103 18.5641 14.2246 18.7559 13.9994C20.3108 12.1698 22.2435 10.7036 24.5046 9.64134C24.6964 9.54979 24.9231 9.5425 25.1295 9.61518C25.3111 9.68057 25.4535 9.80407 25.5276 9.96251C25.6816 10.288 25.6322 10.7167 25.1207 10.9579C25.0917 10.9724 25.0655 10.9913 25.0365 11.0044C25.0263 11.0088 25.0147 11.0074 25.006 11.0117C19.4346 13.6303 16.6954 18.1991 15.4514 22.8971C14.5446 17.0147 12.6294 13.5518 10.8202 11.4259C9.51095 9.7286 8.22341 8.82905 7.47943 8.32048C7.34136 8.22601 6.92435 7.94121 6.7514 7.76826C6.46803 7.48489 6.46803 7.02422 6.7514 6.74085C7.03477 6.45892 7.49687 6.45892 7.81218 6.7728C7.88922 6.84112 8.01272 6.92831 8.16966 7.03294L8.29902 7.12013C9.35108 7.84087 11.31 9.17923 13.0479 12.0609C13.2034 12.3181 13.5042 12.4561 13.7963 12.4009C14.0928 12.3486 14.3252 12.1205 14.3834 11.8254C14.7627 9.8884 14.5927 7.014 12.8649 5.28622C10.069 2.49322 4.59789 2.16919 0.726671 2.16919C0.32553 2.16912 0 2.49465 0 2.89572C0 6.76837 0.324032 12.2395 3.11846 15.0354C4.28387 16.2009 6.08147 16.724 7.86736 16.724C9.32486 16.724 10.7533 16.3592 11.8476 15.7271C13.3399 18.8194 14.5316 23.439 14.5316 30.5057C14.5316 30.9068 14.8571 31.2323 15.2582 31.2323C15.6592 31.2323 15.9848 30.9068 15.9848 30.5057C15.9848 26.5633 16.6605 21.8318 19.173 17.9374C20.18 18.9212 21.9137 19.5446 23.8347 19.6027C23.9306 19.6056 24.0251 19.607 24.1195 19.607C26.0711 19.607 27.796 18.9953 28.8815 17.9083C31.6773 15.1124 31.9999 9.64127 31.9999 5.76855C32.0015 5.36755 31.6774 5.04352 31.2749 5.04352Z" fill="#00B307"/>
</svg>
